#!OML:ASF F:\VICON\USERDATA\INSTALL\rory3\rory3.ASF
:FULLY-SPECIFIED
:DEGREES
47
root 3.79236 17.5031 4.27712 21.7614 -16.3851 0.451358
lowerback -13.6548 4.03617 2.61958
upperback -14.1279 5.03045 -0.0540506
thorax -7.27737 2.25285 -1.14393
lowerneck -2.26215 18.0328 13.7419
upperneck 8.57207 22.8487 6.21044
head 4.11374 11.9354 1.06397
rclavicle 4.27387e-015 -7.55382e-015
rhumerus -2.52423 -25.6843 20.2183
rradius 121.657
rwrist -64.5242
rhand -6.26405 -47.6399
rfingers 7.12502
rthumb 19.5785 -76.6741
lclavicle 4.27387e-015 -7.55382e-015
lhumerus 29.4641 23.6625 -23.5894
lradius 31.9877
lwrist 35.4238
lhand -23.8019 -19.5178
lfingers 7.12502
lthumb 2.66868 10.4452
rfemur -0.9773 3.82908 -7.39833
rtibia -3.18055e-015
rfoot -32.6294 -17.5187
rtoes 55.3832
lfemur -21.6345 -1.5014 -28.6336
ltibia 15.2529
lfoot -13.2903 11.7529
ltoes 8.20341
48
root 3.79558 17.5031 4.27404 21.7128 -16.2656 0.401317
lowerback -13.4992 4.01887 2.70324
upperback -14.1401 5.00963 -0.0455574
thorax -7.37047 2.23396 -1.19389
lowerneck -2.47925 18.0529 13.6601
upperneck 8.78178 22.8159 6.4081
head 4.19277 11.9364 1.16831
rclavicle -4.86029e-014 -4.09496e-014
rhumerus -2.47939 -25.7299 20.1969
rradius 121.629
rwrist -64.6522
rhand -5.94693 -47.7381
rfingers 7.12502
rthumb 19.8834 -76.7409
lclavicle -4.86029e-014 -4.09496e-014
lhumerus 29.6504 23.8528 -23.3351
lradius 31.8901
lwrist 35.1213
lhand -23.3984 -19.6989
lfingers 7.12502
lthumb 3.05834 10.259
rfemur -0.858248 3.77579 -7.29654
rtibia 2.54444e-014
rfoot -32.9446 -16.832
rtoes 55.5251
lfemur -21.5897 -1.48679 -28.571
ltibia 15.2718
lfoot -13.3038 11.6269
ltoes 9.07161
49
root 3.79682 17.5044 4.26809 21.6091 -16.2392 0.432309
lowerback -13.3085 4.00193 2.65139
upperback -14.1155 5.00047 -0.0449271
thorax -7.4496 2.23308 -1.17768
lowerneck -2.79896 18.1041 13.5238
upperneck 9.04264 22.8046 6.64377
head 4.29871 11.9514 1.30741
rclavicle 2.87244e-014 1.82882e-014
rhumerus -2.50853 -25.812 20.2812
rradius 121.678
rwrist -64.7976
rhand -5.67692 -47.8402
rfingers 7.12502
rthumb 20.1429 -76.8159
lclavicle 2.87244e-014 1.82882e-014
lhumerus 29.8524 24.1257 -23.0378
lradius 31.7418
lwrist 34.7717
lhand -23.1759 -19.7995
lfingers 7.12502
lthumb 3.27319 10.1551
rfemur -0.775834 3.78912 -7.29226
rtibia 9.54166e-015
rfoot -33.3884 -16.0623
rtoes 55.7151
lfemur -21.5354 -1.51702 -28.5842
ltibia 15.3205
lfoot -13.4389 11.5986
ltoes 10.4656
50
root 3.79839 17.5053 4.26611 21.5849 -16.2395 0.423244
lowerback -13.2838 4.00412 2.6556
upperback -14.0816 5.00422 -0.0381629
thorax -7.42422 2.23587 -1.17277
lowerneck -2.81676 18.1167 13.471
upperneck 9.02112 22.8218 6.663
head 4.28445 11.9581 1.31965
rclavicle 8.94531e-015 3.18055e-015
rhumerus -2.50222 -25.8855 20.2757
rradius 121.696
rwrist -64.8212
rhand -5.54864 -47.9268
rfingers 7.12502
rthumb 20.2662 -76.8895
lclavicle 8.94531e-015 3.18055e-015
lhumerus 29.7515 24.0118 -23.2022
lradius 31.7875
lwrist 35.0814
lhand -23.2562 -19.6491
lfingers 7.12502
lthumb 3.19566 10.3067
rfemur -0.770892 3.8056 -7.26882
rtibia 9.54166e-015
rfoot -33.5897 -15.7374
rtoes 55.8114
lfemur -21.5229 -1.55434 -28.5694
ltibia 15.3399
lfoot -13.5091 11.6383
ltoes 9.2832
